<?xml version="1.0" standalone="no"?>
<!DOCTYPE svg PUBLIC "-//W3C//DTD SVG 20010904//EN"
 "http://www.w3.org/TR/2001/REC-SVG-20010904/DTD/svg10.dtd">
<svg version="1.0" xmlns="http://www.w3.org/2000/svg"
 width="512.000000pt" height="512.000000pt" viewBox="0 0 512.000000 512.000000"
 preserveAspectRatio="xMidYMid meet">
<metadata>
Created by potrace 1.11, written by Peter Selinger 2001-2013
</metadata>
<g transform="translate(0.000000,512.000000) scale(0.100000,-0.100000)"
fill="#000000" stroke="none">
<path d="M2457 4324 c-1 -1 -35 -4 -75 -8 -297 -25 -630 -156 -887 -350 -142
-107 -356 -337 -419 -451 -9 -16 -28 -48 -41 -70 -54 -88 -173 -360 -175 -403
0 -4 -5 -25 -11 -47 -6 -22 -13 -49 -15 -60 -2 -11 -6 -31 -9 -45 -46 -233
-39 -501 19 -745 124 -514 485 -955 973 -1186 163 -77 380 -137 563 -157 36
-3 461 -7 945 -7 853 0 881 1 910 19 39 25 62 53 81 95 13 30 14 150 13 890 0
471 -5 883 -9 916 -5 33 -11 80 -14 105 -7 67 -16 105 -43 203 -120 439 -408
817 -803 1054 -213 128 -471 214 -715 239 -62 6 -282 13 -288 8z m319 -370
c97 -17 228 -51 274 -71 240 -103 355 -178 505 -328 116 -116 196 -227 269
-372 50 -100 109 -278 121 -368 3 -22 8 -50 11 -63 13 -59 16 -240 16 -877 0
-379 -1 -698 -1 -708 -1 -17 -37 -18 -803 -14 -442 2 -818 7 -836 10 -17 4
-43 9 -57 12 -14 3 -37 8 -52 11 -66 13 -232 77 -320 124 -265 139 -481 361
-612 627 -40 82 -89 207 -92 235 0 4 -5 22 -10 40 -43 144 -54 406 -25 581 9
55 21 108 27 118 5 10 8 19 5 19 -17 0 116 320 136 328 4 2 8 9 8 15 1 19 119
179 185 249 183 196 411 333 670 402 50 14 117 27 150 31 33 4 62 8 64 10 9
10 297 1 367 -11z"/>
<path d="M3307 2818 c-85 -18 -162 -80 -195 -157 -8 -20 -15 -65 -15 -101 -3
-231 273 -347 442 -187 74 70 101 210 57 297 -55 106 -180 171 -289 148z"/>
<path d="M1655 2796 c-229 -107 -186 -449 61 -493 96 -17 180 11 243 84 150
170 32 433 -194 433 -42 0 -75 -7 -110 -24z"/>
<path d="M2455 2800 c-193 -89 -211 -350 -32 -465 50 -32 130 -45 192 -30 169
39 256 216 181 369 -28 57 -88 112 -145 132 -52 19 -149 16 -196 -6z"/>
</g>
</svg>
